<svg width="408" height="108" viewBox="0 0 408 108" fill="none" xmlns="http://www.w3.org/2000/svg">
<g clip-path="url(#clip0_1_2)">
<mask id="mask0_1_2" style="mask-type:luminance" maskUnits="userSpaceOnUse" x="0" y="0" width="407" height="107">
<path d="M406.53 0.5H0.5V106.63H406.53V0.5Z" fill="white"/>
</mask>
<g mask="url(#mask0_1_2)">
<path d="M85.8005 34.23C88.9205 34.23 91.9505 34.52 94.8405 35.04L101.72 27.87C96.9105 26.2 91.5005 25.27 85.7905 25.27C76.0805 25.27 67.2605 27.98 60.7305 32.39L66.7305 38.07C72.2805 35.64 78.8005 34.23 85.8005 34.23Z" fill="#98989A"/>
<path d="M85.7997 25.27C91.5097 25.27 96.9197 26.21 101.73 27.87L109.21 20.08C102.23 17.33 94.2597 15.76 85.7997 15.76C73.1797 15.76 61.6696 19.23 52.8896 24.94L60.7397 32.38C67.2797 27.97 76.0897 25.26 85.7997 25.26V25.27Z" fill="white"/>
<path d="M49.8701 55.75C50.5001 53.18 51.6601 50.74 53.2701 48.48L50.2601 45.43C49.6601 47.31 49.3301 49.26 49.3301 51.26C49.3301 52.79 49.5201 54.28 49.8801 55.74L49.8701 55.75Z" fill="#98989A"/>
<path d="M27.5903 72.61L26.3203 79.17L38.9103 73.75C38.1203 72.08 37.9603 69.9 37.5003 68.13L27.5803 72.61H27.5903Z" fill="#98989A"/>
<path d="M18.73 1.25L0.5 101.06L9.12 101.77L27.17 0.5L18.73 1.25Z" fill="#98989A"/>
<path d="M80.0201 58.69V50.62L66.7801 38.07L60.7801 32.39L52.9301 24.95L27.1401 0.5L9.08008 101.77L47.2801 84.97C43.4801 81.61 40.7801 78.03 38.7801 73.81L26.3401 79.14L27.5901 72.61L35.6501 30.61L36.3201 27.08L42.9701 33.78L51.5301 42.4L55.2101 46.1L70.3201 59.12L55.6501 65.84C59.4601 69.65 63.9701 73 70.0601 74.89L88.3601 66.67L80.0101 58.67L80.0201 58.69Z" fill="#E1251B"/>
<path d="M121.73 55.75C122.09 54.29 122.28 52.8 122.28 51.27C122.28 46.76 120.63 42.51 117.8 38.81L113.46 43.31C117.63 46.78 120.59 51.06 121.74 55.75H121.73Z" fill="#98989A"/>
<path d="M129.9 98.47L119.6 88.57C117.96 89.7 116.19 90.74 114.35 91.69L129.9 106.62L177.84 56.69L177.79 48.6L129.9 98.46V98.47Z" fill="#98989A"/>
<path d="M94.9705 64.93L86.4905 56.79L80.0005 50.59L79.9805 58.68L89.1005 67.44L97.8205 75.82C100.031 75.27 102.15 74.57 104.15 73.74L94.9705 64.92V64.93Z" fill="#98989A"/>
<path d="M128.3 19.78L121.48 26.88L113.95 34.73L108.82 40.07L99.0898 50.2L103.17 54.11L113.51 43.33L117.84 38.83L125.77 30.57L128.3 27.93L154.67 53.2L158.75 48.97L128.3 19.78Z" fill="#98989A"/>
<path d="M125.77 30.57L117.85 38.82C120.68 42.52 122.3 46.76 122.3 51.27C122.3 52.8 122.1 54.29 121.75 55.75C120.82 59.54 118.75 63.06 115.78 66.1C112.74 69.21 108.78 71.83 104.16 73.75C102.16 74.58 100.04 75.27 97.8304 75.83C94.0704 76.76 90.0204 77.28 85.8104 77.28C80.6204 77.28 75.6904 76.51 71.2304 75.12C65.1504 73.22 59.9304 70.18 56.1204 66.37C54.7304 64.98 53.5304 63.49 52.5404 61.92C51.3204 59.98 50.4104 57.92 49.8804 55.76C49.5304 54.3 49.3304 52.81 49.3304 51.28C49.3304 49.27 49.6604 47.32 50.2604 45.45L41.1504 36.23C37.8204 41.17 35.9404 46.74 35.9404 52.65C35.9404 54.17 36.0804 55.66 36.3204 57.13C36.9004 60.7 38.1804 64.1 40.0404 67.28C40.9704 68.88 42.0604 70.41 43.2704 71.88C46.4704 75.74 50.6004 79.13 55.4404 81.89C63.8504 86.67 74.3704 89.52 85.8004 89.52C93.8004 89.52 101.35 88.13 108.05 85.66C110.08 84.91 112.03 84.06 113.89 83.12C118.21 80.94 122.04 78.27 125.24 75.21C130.61 70.09 134.19 63.89 135.3 57.13C135.54 55.66 135.68 54.17 135.68 52.65C135.68 44.38 132 36.74 125.77 30.59V30.57Z" fill="white"/>
<path d="M94.9198 65L104.07 73.79C108.68 71.87 112.68 69.28 115.72 66.17L103.18 54.12L99.1098 50.21L108.78 40.14L113.91 34.8L121.44 26.95L128.27 19.84L158.64 49L154.56 53.25L129.68 79.16C127.06 82.75 123.66 85.94 119.64 88.69L129.86 98.55L177.81 48.62L127.87 0.659973L109.17 20.14L101.69 27.93L94.8098 35.1L80.0098 50.59L94.9398 64.99L94.9198 65Z" fill="#0066B3"/>
<path d="M52.7299 62.16C52.7299 62.16 52.9699 62.55 52.9999 62.6C53.7299 63.76 54.7399 64.83 55.6899 65.89L70.6099 59L36.3199 27.08L35.3799 32.02L62.2699 58.64L52.7199 62.16H52.7299Z" fill="#98989A"/>
<path d="M135.67 52.64C135.67 54.16 135.53 55.65 135.29 57.12C134.18 63.88 130.6 70.07 125.23 75.2C122.03 78.25 118.2 80.92 113.88 83.11C112.02 84.05 110.07 84.9 108.04 85.65C101.34 88.12 93.7897 89.51 85.7897 89.51C74.3597 89.51 63.8397 86.66 55.4297 81.88C50.5897 79.13 46.4597 75.74 43.2597 71.87C42.0397 70.4 40.9597 68.86 40.0297 67.27C38.1697 64.09 36.8897 60.69 36.3097 57.12C36.0697 55.65 35.9297 54.16 35.9297 52.64C35.9297 52.16 35.9597 51.69 35.9897 51.22C35.9897 51.19 35.9797 51.16 35.9697 51.14C35.7297 52.61 35.9297 60.09 35.9297 61.61C35.9297 64.02 36.2497 66.36 36.8497 68.64C37.3097 70.41 37.9497 72.14 38.7397 73.82C40.7397 78.04 43.7497 81.91 47.5497 85.27C56.6997 93.34 70.4397 98.48 85.7997 98.48C96.4597 98.48 106.33 96 114.44 91.79C116.28 90.83 118.03 89.79 119.68 88.66C123.7 85.91 127.1 82.68 129.72 79.09C133.52 73.89 135.68 67.93 135.68 61.61C135.68 60.28 135.8 53.95 135.67 51.44C135.65 51.1 135.68 52.21 135.68 52.65L135.67 52.64Z" fill="#98989A"/>
<path d="M189.75 24.66H229.44L225.7 39.94H206.68L204.8 47.97H224.65L221.19 62.13H201.6L196.9 82.25H176.4L189.76 24.66H189.75Z" fill="white"/>
<path d="M234.831 24.66H255.331L241.971 82.25H221.471L234.831 24.66Z" fill="white"/>
<path d="M260.7 25L262.02 24.83C268.6 24.05 276.79 23.54 281.3 23.54C288.82 23.54 294.66 24.4 299.08 26.22C304.72 28.55 308.11 33.65 308.11 39.78C308.11 45.05 306.32 50.06 302.94 53.94C300.02 57.31 297.39 58.95 291.94 60.59L290.62 61.02C291.18 61.45 291.37 61.63 291.66 61.88C293.26 63.69 298.06 73.02 302.1 82.26H279.53C276.61 74.06 275.77 71.9 271.91 62.57L267.4 82.26H247.46L260.72 25.01L260.7 25ZM275.84 52.11C282.42 52.11 287.03 48.22 287.03 42.7C287.03 39.76 284.87 38.3 280.63 38.3C279.41 38.3 278.75 38.39 277.43 38.65L274.33 51.95C274.99 52.04 275.08 52.12 275.83 52.12L275.84 52.11Z" fill="white"/>
<path d="M356.78 24.66H406.53L403.05 41.33H388.28L378.5 82.25H358L367.78 41.33H351.78L356.78 24.66Z" fill="white"/>
<path d="M388.1 71.96C390.86 71.96 393.11 74.18 393.11 76.95C393.11 79.72 390.89 81.96 388.1 81.96C385.31 81.96 383.11 79.77 383.11 76.95C383.11 74.13 385.31 71.96 388.1 71.96ZM388.1 81.34C390.54 81.34 392.49 79.39 392.49 76.97C392.49 74.55 390.54 72.58 388.1 72.58C385.66 72.58 383.73 74.53 383.73 76.95C383.73 79.37 385.66 81.34 388.1 81.34ZM386.17 74.4C386.42 74.38 386.46 74.36 386.96 74.32C387.46 74.28 387.67 74.26 387.89 74.26C389.53 74.26 390.34 74.9 390.34 76.12C390.34 76.85 390.03 77.3 389.37 77.55L389.29 77.57C389.35 77.61 389.37 77.63 389.39 77.67C389.56 77.83 390.14 78.7 390.63 79.49H388.76C388.37 78.77 388.26 78.58 387.77 77.77V79.49H386.17V74.41V74.4ZM387.97 76.8C388.41 76.8 388.67 76.59 388.67 76.18C388.67 75.77 388.44 75.58 387.99 75.58C387.89 75.58 387.87 75.58 387.78 75.6V76.78C387.86 76.8 387.9 76.8 387.97 76.8Z" fill="white"/>
<path d="M304.101 80.79C309.861 82.5 316.171 83.46 322.061 83.46C330.061 83.46 336.171 81.65 341.431 77.85C347.261 73.7 351.021 67.32 351.021 61.53C351.021 57.64 349.331 54.1 346.321 51.6C343.971 49.7 341.521 48.23 336.541 45.9L332.501 44C331.181 43.31 330.521 42.62 330.521 41.84C330.521 39.77 333.151 38.21 336.731 38.21C339.401 38.21 342.591 38.99 348.681 40.98L352.881 25.39C348.331 24.15 343.891 23.53 339.451 23.53C322.711 23.53 309.821 32.68 309.821 44.51C309.821 50.73 313.961 55.13 324.301 59.97C329.191 62.21 330.041 62.82 330.041 64.37C330.041 66.7 327.501 68.17 323.361 68.17C319.691 68.17 314.991 67.05 308.591 64.72L304.091 80.78L304.101 80.79Z" fill="white"/>
</g>
</g>
<defs>
<clipPath id="clip0_1_2">
<rect width="407" height="107" fill="white" transform="translate(0.5 0.5)"/>
</clipPath>
</defs>
</svg>
